# xmcd
# 
# Track frame offsets:
#     150
#     11697
#     25555
#     36082
#     51062
#     70685
#     85867
#     107467
#     123492
#     145267
# 
# Disc length: 2201
# 
# Revision: 8
# Processed by: cddbd v1.5.2PL0 Copyright (c) Steve Scherf et al.
# Submitted via: fre:ac v1.1beta1pre5
# 
DISCID=7608970a
DTITLE=Willie Nelson - The Best Of Willie Nelson
DYEAR=1994
DGENRE=Country
TTITLE0=On The Road Again
TTITLE1=My Heroes Have Always Been Cowboys
TTITLE2=Blue Eyes Crying In The Rain
TTITLE3=Nothing I Can Do About It Now
TTITLE4=Georgia On My Mind
TTITLE5=Living In The Promiseland
TTITLE6=Poncho And Lefty
TTITLE7=Always On My Mind
TTITLE8=City Of New Orleans
TTITLE9=Angel Flying Too Close To The Ground
EXTD=
EXTT0=
EXTT1=
EXTT2=
EXTT3=
EXTT4=
EXTT5=
EXTT6=
EXTT7=
EXTT8=
EXTT9=
PLAYORDER=
